<svg xmlns="http://www.w3.org/2000/svg" xmlns:xlink="http://www.w3.org/1999/xlink" viewBox="0 0 84.79 95.98"><defs><style>.cls-1{fill:url(#linear-gradient);}.cls-2{fill:url(#linear-gradient-2);}.cls-3{fill:#25529f;}.cls-4{fill:url(#linear-gradient-3);}.cls-5{fill:url(#linear-gradient-4);}.cls-6{fill:url(#linear-gradient-5);}.cls-7{fill:url(#linear-gradient-6);}</style><linearGradient id="linear-gradient" x1="31.25" y1="39.61" x2="62.19" y2="62.46" gradientUnits="userSpaceOnUse"><stop offset="0" stop-color="#d9d9d9"/><stop offset="1" stop-color="#d9d9d9" stop-opacity="0"/></linearGradient><linearGradient id="linear-gradient-2" x1="3431.08" y1="446.45" x2="3439.6" y2="452.75" gradientTransform="translate(3465.21 464.99) rotate(180)" xlink:href="#linear-gradient"/><linearGradient id="linear-gradient-3" x1="27.05" y1="56.08" x2="34.07" y2="58.64" gradientUnits="userSpaceOnUse"><stop offset="0" stop-color="#263571"/><stop offset="1" stop-color="#263571" stop-opacity="0"/></linearGradient><linearGradient id="linear-gradient-4" x1="32.74" y1="40.51" x2="39.77" y2="43.07" xlink:href="#linear-gradient-3"/><linearGradient id="linear-gradient-5" x1="3.52" y1="20.64" x2="9.77" y2="26.89" gradientUnits="userSpaceOnUse"><stop offset="0" stop-color="#fff" stop-opacity="0"/><stop offset="1" stop-color="#fff" stop-opacity="0.2"/></linearGradient><linearGradient id="linear-gradient-6" x1="19.46" y1="4.7" x2="25.71" y2="10.95" xlink:href="#linear-gradient-5"/></defs><title>Asset 1</title><g id="Layer_2" data-name="Layer 2"><g id="Layer_1-2" data-name="Layer 1"><polygon class="cls-1" points="84.79 48.74 37.5 1.46 28.05 8.71 38.97 11.88 38.97 26.27 37.21 50.18 26.21 73.18 49.65 95.98 84.79 48.74"/><rect class="cls-2" x="23.18" y="10.87" width="15.79" height="10.83"/><path class="cls-3" d="M8.48,14.56H37.87a1.09,1.09,0,0,0,1.1-1.1V5A5,5,0,0,0,37.5,1.46,4.91,4.91,0,0,0,34,0H12.37a5.09,5.09,0,0,0-5,5v8.48A1.1,1.1,0,0,0,8.48,14.56Z"/><path class="cls-3" d="M40.21,19.89A1.08,1.08,0,0,0,39.15,19H7.21a1.11,1.11,0,0,0-1.07.86L0,46.6a1.1,1.1,0,0,0,.18.9l18.5,25.22c.62.85,2.05,1,2.05-1.22v-24a5.56,5.56,0,1,1,4.81,0v24c0,2.18,1.44,2.07,2.06,1.22h0L46.14,47.5a1.1,1.1,0,0,0,.19-.9Z"/><path class="cls-4" d="M27.18,38.71a5.45,5.45,0,0,1-1.61,8.74v24c0,2.18,1.44,2.07,2.06,1.22h0l14.2-19.36Z"/><path class="cls-5" d="M27,38.49l-.27-.28-.06.06C26.73,38.35,26.86,38.4,27,38.49Z"/><path class="cls-6" d="M7.2,19a1.1,1.1,0,0,0-1.06.86L1.91,38.35,21.23,19Z"/><path class="cls-7" d="M34,0H12.37a5.09,5.09,0,0,0-5,5v8.48a1.1,1.1,0,0,0,1.09,1.1H25.71L38.09,2.17a4.45,4.45,0,0,0-.59-.71A4.92,4.92,0,0,0,34,0Z"/></g></g></svg>