<svg xmlns="http://www.w3.org/2000/svg" xmlns:xlink="http://www.w3.org/1999/xlink" viewBox="0 0 98.85 84"><defs><style>.cls-1{fill:url(#linear-gradient);}.cls-2{fill:url(#linear-gradient-2);}.cls-3{fill:#25529f;}.cls-4{fill:url(#linear-gradient-3);}.cls-5{fill:url(#linear-gradient-4);}.cls-6{fill:url(#linear-gradient-5);}</style><linearGradient id="linear-gradient" x1="64.61" y1="18.74" x2="50.95" y2="18.74" gradientUnits="userSpaceOnUse"><stop offset="0" stop-color="#d9d9d9"/><stop offset="1" stop-color="#d9d9d9" stop-opacity="0"/></linearGradient><linearGradient id="linear-gradient-2" x1="45.81" y1="34.19" x2="65.68" y2="58.08" xlink:href="#linear-gradient"/><linearGradient id="linear-gradient-3" x1="49.15" y1="23.57" x2="56.21" y2="33.25" gradientUnits="userSpaceOnUse"><stop offset="0" stop-color="#263571"/><stop offset="1" stop-color="#263571" stop-opacity="0"/></linearGradient><linearGradient id="linear-gradient-4" x1="13.18" y1="0.09" x2="23.52" y2="10.43" gradientUnits="userSpaceOnUse"><stop offset="0" stop-color="#fff" stop-opacity="0"/><stop offset="1" stop-color="#fff" stop-opacity="0.2"/></linearGradient><linearGradient id="linear-gradient-5" x1="-4.42" y1="17.69" x2="5.91" y2="28.03" xlink:href="#linear-gradient-4"/></defs><title>Asset 3</title><g id="Layer_2" data-name="Layer 2"><g id="Layer_1-2" data-name="Layer 1"><rect class="cls-1" x="49.67" y="6.88" width="15.79" height="23.74"/><polygon class="cls-2" points="98.85 35.44 64.71 1.29 40.85 11.59 65.45 9.52 65.45 20.4 25.16 34.67 6.43 31.65 0.65 42.44 42.23 84 98.85 35.44"/><path class="cls-3" d="M32.73,25.79,65.45,9.52V3.38A3.38,3.38,0,0,0,62.07,0H3.39A3.39,3.39,0,0,0,0,3.38V9.52Z"/><path class="cls-3" d="M32.73,31.63,0,15.36V40.45a3.39,3.39,0,0,0,3.39,3.39H62.07a3.38,3.38,0,0,0,3.38-3.39V15.36Z"/><path class="cls-4" d="M62.07,43.84a3.38,3.38,0,0,0,3.38-3.39V15.36L32.73,31.63,44.94,43.84Z"/><path class="cls-5" d="M0,9.52l17.49,8.69L35.7,0H3.39A3.39,3.39,0,0,0,0,3.38Z"/><polygon class="cls-6" points="13.58 22.12 0 15.36 0 35.7 13.58 22.12"/></g></g></svg>