<svg xmlns="http://www.w3.org/2000/svg" viewBox="0 0 519.44 169.5"><defs><style>.cls-1{font-size:36.05px;fill:#525251;font-family:Montserrat-Regular, Montserrat;}.cls-2{letter-spacing:-0.01em;}.cls-3{letter-spacing:-0.01em;}.cls-4{letter-spacing:-0.02em;}.cls-5{letter-spacing:-0.01em;}.cls-6{letter-spacing:-0.03em;}.cls-7{letter-spacing:0em;}.cls-8{fill:#25529f;}.cls-9{font-family:Montserrat-Black, Montserrat;font-weight:800;}.cls-10{fill:#333;}.cls-11{fill:#00b3cb;}</style></defs><title>Asset 5</title><g id="Layer_2" data-name="Layer 2"><g id="Capa_1" data-name="Capa 1"><text class="cls-1" transform="translate(0 121.72)"><tspan class="cls-2">T</tspan><tspan x="20.19" y="0">U </tspan><tspan class="cls-3" x="58.18" y="0">C</tspan><tspan x="83.56" y="0">OMUNI</tspan><tspan class="cls-4" x="216.97" y="0">C</tspan><tspan class="cls-5" x="242.24" y="0">A</tspan><tspan x="267.72" y="0">CIÓN DIGI</tspan><tspan class="cls-6" x="452.94" y="0">T</tspan><tspan class="cls-7" x="472.37" y="0">AL</tspan><tspan class="cls-8"><tspan class="cls-3" x="0" y="38.04">C</tspan><tspan x="25.38" y="38.04">ON </tspan><tspan class="cls-9" x="94.37" y="38.04">FUERZA LEGAL</tspan></tspan></text><path class="cls-10" d="M26.44.3A26.43,26.43,0,0,0,0,26.73v21a.59.59,0,0,0,.58.59A.57.57,0,0,0,1,48.17L18.82,30.36A8.35,8.35,0,0,1,18,26.73a8.47,8.47,0,1,1,8.47,8.46,8.31,8.31,0,0,1-3.63-.84L5,52.17H5a.59.59,0,0,0-.16.4.58.58,0,0,0,.58.59h21A26.44,26.44,0,0,0,26.44.3Z"/><path class="cls-10" d="M80.39,18.82a17.4,17.4,0,0,1,7.83-1.61v6.44a7.62,7.62,0,0,0-1.46-.08,11,11,0,0,0-8.21,3.15c-2,2.07-3,5.06-3,8.9V52.78H69.2V18.22h6.36v5.35a10.78,10.78,0,0,1,4.83-4.75"/><path class="cls-10" d="M127.47,18.22V52.85h-5.9V48a12.7,12.7,0,0,1-5.14,4.29,16.27,16.27,0,0,1-7,1.54c-4.76,0-8.52-1.3-11.2-4s-4.15-6.52-4.15-11.74V18.22h6.37V37.46c0,3.45.85,6.13,2.53,7.9A9.45,9.45,0,0,0,110.14,48c3.46,0,6.14-1,8.06-3.14s3-5,3-8.75V18.22h6.28"/><path class="cls-10" d="M160.75,46.66A11.46,11.46,0,0,0,165,42.21a13.27,13.27,0,0,0,1.62-6.59A13.26,13.26,0,0,0,165,29a12,12,0,0,0-4.28-4.45A12.88,12.88,0,0,0,154.53,23a12.74,12.74,0,0,0-6.14,1.54A10.48,10.48,0,0,0,144.1,29a14.89,14.89,0,0,0,0,13.19,11,11,0,0,0,4.29,4.45,12.06,12.06,0,0,0,6.14,1.61,11.78,11.78,0,0,0,6.22-1.61m3.67-27a16.31,16.31,0,0,1,6.45,6.44,19.27,19.27,0,0,1,2.29,9.52,19.5,19.5,0,0,1-2.29,9.58,16.4,16.4,0,0,1-6.45,6.45,18.8,18.8,0,0,1-9.35,2.29,17.85,17.85,0,0,1-7.29-1.52c-2.23-1-5.29-4.53-5.29-4.53v5H136.2V.63h6.36V23.11A14.78,14.78,0,0,1,148,18.82a16.66,16.66,0,0,1,7.13-1.46,18.41,18.41,0,0,1,9.28,2.3"/><path class="cls-10" d="M190.14,18.82A17.4,17.4,0,0,1,198,17.21v6.44a7.68,7.68,0,0,0-1.46-.08,10.93,10.93,0,0,0-8.21,3.15c-2,2.07-3,5.06-3,8.9V52.78H179V18.22h6.36v5.35a10.73,10.73,0,0,1,4.83-4.75"/><path class="cls-10" d="M205.73,18.22h6.36V52.85h-6.36Zm.19-6.4a3.59,3.59,0,0,1-1.09-2.66,3.61,3.61,0,0,1,1.09-2.66,3.81,3.81,0,0,1,2.8-1.09,4.06,4.06,0,0,1,2.8,1A3.35,3.35,0,0,1,212.61,9a3.68,3.68,0,0,1-1.09,2.74,3.85,3.85,0,0,1-2.8,1.09,3.77,3.77,0,0,1-2.8-1"/><path class="cls-10" d="M228.24,51.57a18.71,18.71,0,0,1-6.74-25.39,17.26,17.26,0,0,1,6.74-6.52,20.26,20.26,0,0,1,9.75-2.3,18.61,18.61,0,0,1,8.66,1.92A14.06,14.06,0,0,1,252.56,25l-4.91,3.15a11.52,11.52,0,0,0-4.14-3.84A12.26,12.26,0,0,0,238,23a13.1,13.1,0,0,0-6.29,1.53,10.68,10.68,0,0,0-4.38,4.45,13.38,13.38,0,0,0-1.6,6.6,13.46,13.46,0,0,0,1.6,6.67,11.63,11.63,0,0,0,4.38,4.45A13.1,13.1,0,0,0,238,48.19a11.08,11.08,0,0,0,9.66-5.14l4.91,3.14a14,14,0,0,1-5.91,5.68,18.77,18.77,0,0,1-8.66,2,19.6,19.6,0,0,1-9.75-2.3"/><path class="cls-10" d="M280.65,46.66a10.84,10.84,0,0,0,4.3-4.45,14.14,14.14,0,0,0,1.53-6.59A14.12,14.12,0,0,0,285,29a10.84,10.84,0,0,0-4.3-4.45,13.11,13.11,0,0,0-12.33,0A10.86,10.86,0,0,0,264,29a13.26,13.26,0,0,0-1.62,6.6A13.27,13.27,0,0,0,264,42.21a11.94,11.94,0,0,0,4.3,4.45,12.07,12.07,0,0,0,6.2,1.61,11.81,11.81,0,0,0,6.13-1.61m12.28-28.44V52.85h-6.37v-5a12.43,12.43,0,0,1-5.37,4.52,17.62,17.62,0,0,1-7.28,1.54,19.06,19.06,0,0,1-9.36-2.3,16.28,16.28,0,0,1-6.44-6.44,19.57,19.57,0,0,1-2.3-9.59,19.24,19.24,0,0,1,2.3-9.51,16.25,16.25,0,0,1,6.44-6.45,18.85,18.85,0,0,1,9.36-2.3A17.33,17.33,0,0,1,281,18.74c2.52,1.13,2.52,1.26,6,4.29V18.15Z"/><path class="cls-10" d="M310.51,24.34a10.42,10.42,0,0,0-4.14,4.37,13.6,13.6,0,0,0-1.46,6.52v.69l22.94-4.29a11.33,11.33,0,0,0-3.91-6.37,11.48,11.48,0,0,0-7.29-2.46,12.13,12.13,0,0,0-6.14,1.54M328.46,43.9,332,48a14.11,14.11,0,0,1-6,4.29A20.92,20.92,0,0,1,318,53.79a21.42,21.42,0,0,1-10.05-2.3A17,17,0,0,1,301.08,45a18.54,18.54,0,0,1-2.38-9.43,19.06,19.06,0,0,1,2.3-9.36,16.48,16.48,0,0,1,6.44-6.52,18.6,18.6,0,0,1,9.21-2.3,17.25,17.25,0,0,1,15.18,8.44,17.85,17.85,0,0,1,2.46,9.2l-28.46,5.52a11.46,11.46,0,0,0,4.6,5.75,13.84,13.84,0,0,0,7.75,2.08,13.52,13.52,0,0,0,10.28-4.45"/><path class="cls-11" d="M360.8,56.68a39.31,39.31,0,0,1-.59-13.55c1.46-13.92,2.86-26.27,3.54-32.14a229.07,229.07,0,0,1,28.77-4.94c1.68-.17,2.42-2,2.24-3.68s-1-2.52-2.69-2.35A318.31,318.31,0,0,0,337.5,11c-1.61.51-2,2.68-1.49,4.29.42,1.29,1.8,3.07,3.58,2.62.89-.22,7.19-2.48,16.73-5-.78,6.8-2.08,18.86-2.93,31-.8,11.32-.48,15.19,1.43,17.22a5.29,5.29,0,0,0,3.57,1.35c1.69,0,3.72-1.37,3.72-3.06A2.8,2.8,0,0,0,360.8,56.68Z"/><path class="cls-11" d="M473.7,35.47c-4.25-2.06-10.94-5.48-11-8-.21-5.67,19.9-7.26,20-7.27a2.48,2.48,0,0,0,2.07-3.17,2.69,2.69,0,0,0-3.35-2c-1.83.36-18.89,1.68-23.4,8.16a6.71,6.71,0,0,0-1.16,5.43c1.17,5,7.31,8,13.26,10.91,2.31,1.12,8.41,4,8,6.06-.58,2.93-10.17,3.14-15.88,2.13A2.53,2.53,0,0,0,459,49.79a2.42,2.42,0,0,0,2,3.14,60.06,60.06,0,0,0,9.16.77c5.63,0,12.09-.64,13.79-5.7C485.84,42.38,480.07,38.57,473.7,35.47Z"/><path class="cls-11" d="M513.68,16.83a161.18,161.18,0,0,0-28.89,6.24A2.14,2.14,0,0,0,483.13,26a2.37,2.37,0,0,0,3.05,1.57c3.79-.89,7.22-1.62,10.3-2.23a156.29,156.29,0,0,0-2.63,24.75c0,2.45,1.3,3.56,3.16,3.56,1.63,0,2.83-.37,3.59-1.43a3,3,0,0,0-.43-3.92c-.12-3.24.79-14.06,2.6-24.13,6.93-1.19,10.79-1.53,10.9-1.54a2.75,2.75,0,0,0,2.63-3C516.16,18,515.21,16.7,513.68,16.83Z"/><path class="cls-11" d="M426.72,42.9c-.35-7,1.25-16,2.44-23,.28-1.67-1.05-2.33-2.71-2.61s-3.64.41-3.93,2.07c-.57,3.37-3.63,14.69-2.11,23.91Z"/><path class="cls-11" d="M455.05,46.52a8.27,8.27,0,0,1-3.56-2.46c-2.88-3.91-2.51-17.8-1.31-24,.33-1.65-.87-2.74-2.52-3.07a2.78,2.78,0,0,0-3.47,2.24c-1.49,10.6-3.81,29-15.07,29.57.39-.32.49-.87.45-1.83a2.73,2.73,0,0,0-2.83-2.9c-18,.9-32.26,1.47-32.19-1.7.05-2.19,3.61-3.81,5.35-4.55,6.43-2.78,14.23-4.94,13.15-13.38a6.9,6.9,0,0,0-3.57-5.18c-9.25-5.37-34.11,4.33-39.46,6.44-1.57.62-1.85,2-1.23,3.58a2.41,2.41,0,0,0,3.47,1.42c1.68-.66,3.55-1.36,5.5-2-1.08,6.71-3.42,21.89-3.39,27.19a3,3,0,0,0,3.32,2.8c2,0,3.44-1.07,3.44-2.64,0-6,2.42-26.9,2.72-29.36,10.78-3.32,22.14-5.47,23.52-1.42s-2.18,5.71-8.89,8.6c-4.88,2.11-8.35,3.77-9.07,7.28a5.41,5.41,0,0,0,1.18,4.41c2.93,3.95,14,4.58,26.85,4,1.76,0,3.09,0,4.2-.06a2.19,2.19,0,0,0,.18.47c1.23,2.1,2.38,3.92,8.73,3.92s10.76-5.75,14.39-12a12.22,12.22,0,0,0,2.51,5.46,10.4,10.4,0,0,0,7.68,4.2c1.19.12,1.85-.61,2.12-2.07S456.74,47.08,455.05,46.52Z"/></g></g></svg>