<svg xmlns="http://www.w3.org/2000/svg" xmlns:xlink="http://www.w3.org/1999/xlink" viewBox="0 0 82.27 102.29"><defs><style>.cls-1{fill:url(#linear-gradient);}.cls-2{fill:#25529f;}.cls-3{fill:#00a2bc;}.cls-4{fill:url(#linear-gradient-2);}.cls-5{fill:url(#linear-gradient-3);}.cls-6{fill:#fff;}.cls-7{fill:url(#linear-gradient-4);}.cls-8{fill:url(#linear-gradient-5);}</style><linearGradient id="linear-gradient" x1="28.9" y1="42.51" x2="54.06" y2="67.66" gradientUnits="userSpaceOnUse"><stop offset="0" stop-color="#d9d9d9"/><stop offset="1" stop-color="#d9d9d9" stop-opacity="0"/></linearGradient><linearGradient id="linear-gradient-2" x1="20.82" y1="32.4" x2="45.05" y2="48.47" gradientUnits="userSpaceOnUse"><stop offset="0" stop-color="#263571"/><stop offset="1" stop-color="#263571" stop-opacity="0"/></linearGradient><linearGradient id="linear-gradient-3" x1="28.83" y1="64.07" x2="29.35" y2="70.74" xlink:href="#linear-gradient-2"/><linearGradient id="linear-gradient-4" x1="18.31" y1="18.91" x2="8.74" y2="9.34" xlink:href="#linear-gradient-2"/><linearGradient id="linear-gradient-5" x1="19.75" y1="20.06" x2="12.79" y2="13.1" xlink:href="#linear-gradient"/></defs><title>Asset 2</title><g id="Layer_2" data-name="Layer 2"><g id="Layer_1-2" data-name="Layer 1"><path class="cls-1" d="M82.27,42l-40-40-3.8,1L37,5.71A4.17,4.17,0,0,1,39.63,9.6V50.87a4.19,4.19,0,0,1-4.18,4.19H10.2l-8,14.69,32.54,32.54Z"/><path class="cls-2" d="M36.94,0H8.27A8.28,8.28,0,0,0,0,8.27V64.12a8.27,8.27,0,0,0,8.27,8.26H36.94a8.26,8.26,0,0,0,8.26-8.26V8.27A8.27,8.27,0,0,0,36.94,0Zm2.69,50.87a4.19,4.19,0,0,1-4.18,4.19H9.29a4.19,4.19,0,0,1-4.18-4.19V9.6A4.19,4.19,0,0,1,9.29,5.41H35.45A4.19,4.19,0,0,1,39.63,9.6Z"/><path class="cls-3" d="M6.26,53.75h0l0,0Z"/><path class="cls-4" d="M38.67,7a4.17,4.17,0,0,1,1,2.64V50.87a4.19,4.19,0,0,1-4.18,4.19H9.29A4.17,4.17,0,0,1,6.4,53.89L24.9,72.38h12a8.26,8.26,0,0,0,8.26-8.26V13.49Z"/><path class="cls-5" d="M38.47,72.23,25.92,59.68a4.14,4.14,0,0,1-6,5.64L27,72.38h10A7.78,7.78,0,0,0,38.47,72.23Z"/><path class="cls-6" d="M22.61,66.33a4.17,4.17,0,1,1,4.15-4.16A4.17,4.17,0,0,1,22.61,66.33Z"/><rect class="cls-6" x="5.11" y="5.41" width="34.53" height="49.65" rx="4.19"/><path class="cls-7" d="M5.11,9.6A4.19,4.19,0,0,1,9.29,5.41H35.18L40,.6A8.17,8.17,0,0,0,36.94,0H8.27A8.28,8.28,0,0,0,0,8.27V40.59l5.11-5.11Z"/><path class="cls-8" d="M35.18,5.41H9.29A4.19,4.19,0,0,0,5.11,9.6V35.48Z"/><path class="cls-2" d="M7.51,34.08l.75-1.67a5.7,5.7,0,0,0,3.16,1c1.31,0,1.84-.44,1.84-1,0-1.79-5.56-.56-5.56-4.11,0-1.63,1.32-3,4-3a6.4,6.4,0,0,1,3.32.85l-.68,1.68a5.35,5.35,0,0,0-2.65-.75c-1.31,0-1.82.49-1.82,1.09,0,1.76,5.56.54,5.56,4.06,0,1.6-1.32,3-4.06,3A6.87,6.87,0,0,1,7.51,34.08Z"/><path class="cls-2" d="M25.68,35V29.28L22.85,34h-1l-2.8-4.61V35H17V25.45h1.83l3.58,5.95,3.52-5.95h1.82l0,9.57Z"/><path class="cls-2" d="M29.28,34.08,30,32.41a5.68,5.68,0,0,0,3.16,1c1.31,0,1.84-.44,1.84-1,0-1.79-5.56-.56-5.56-4.11,0-1.63,1.31-3,4-3a6.43,6.43,0,0,1,3.32.85l-.68,1.68a5.38,5.38,0,0,0-2.65-.75c-1.32,0-1.82.49-1.82,1.09,0,1.76,5.56.54,5.56,4.06,0,1.6-1.33,3-4.06,3A6.82,6.82,0,0,1,29.28,34.08Z"/></g></g></svg>