<svg xmlns="http://www.w3.org/2000/svg" viewBox="0 0 157.76 19.08"><defs><style>.cls-1{fill:#333;}</style></defs><title>Asset 1</title><g id="Layer_2" data-name="Layer 2"><g id="Capa_1" data-name="Capa 1"><path class="cls-1" d="M8.08.09A8.08,8.08,0,0,0,0,8.17v6.42H0a.18.18,0,0,0,.18.18.2.2,0,0,0,.13-.06L5.75,9.28A2.58,2.58,0,1,1,7,10.5L1.53,15.94h0a.21.21,0,0,0-.05.13.18.18,0,0,0,.18.18H8.08A8.08,8.08,0,0,0,8.08.09Z"/><path class="cls-1" d="M24.56,5.75A5.32,5.32,0,0,1,27,5.26v2a1.94,1.94,0,0,0-.45,0,3.36,3.36,0,0,0-2.51,1,3.79,3.79,0,0,0-.91,2.72v5.24H21.14V5.57h1.95V7.2a3.32,3.32,0,0,1,1.47-1.45"/><path class="cls-1" d="M39,5.57V16.15h-1.8V14.68A3.94,3.94,0,0,1,35.58,16a5.08,5.08,0,0,1-2.14.47A4.63,4.63,0,0,1,30,15.24a4.75,4.75,0,0,1-1.26-3.59V5.57H30.7v5.88a3.42,3.42,0,0,0,.77,2.41,2.89,2.89,0,0,0,2.18.82,3.15,3.15,0,0,0,2.47-1A3.74,3.74,0,0,0,37,11.05V5.57H39"/><path class="cls-1" d="M49.12,14.26a3.57,3.57,0,0,0,1.31-1.36,4.19,4.19,0,0,0,.49-2,4.12,4.12,0,0,0-.49-2,3.72,3.72,0,0,0-1.31-1.36A3.91,3.91,0,0,0,47.22,7a3.86,3.86,0,0,0-1.88.47A3.13,3.13,0,0,0,44,8.87a4.23,4.23,0,0,0-.47,2,4.3,4.3,0,0,0,.47,2,3.36,3.36,0,0,0,1.31,1.36,3.76,3.76,0,0,0,1.88.49,3.68,3.68,0,0,0,1.9-.49M50.24,6a5,5,0,0,1,2,2,5.82,5.82,0,0,1,.7,2.9,5.93,5.93,0,0,1-.7,2.93,5,5,0,0,1-2,2,5.72,5.72,0,0,1-2.86.7A5.49,5.49,0,0,1,45.15,16a6.78,6.78,0,0,1-1.61-1.39v1.54H41.62V.19h1.94V7.06a4.67,4.67,0,0,1,1.66-1.31,5.21,5.21,0,0,1,2.18-.44,5.64,5.64,0,0,1,2.84.7"/><path class="cls-1" d="M58.1,5.75a5.25,5.25,0,0,1,2.39-.49v2a1.94,1.94,0,0,0-.45,0,3.38,3.38,0,0,0-2.51,1,3.84,3.84,0,0,0-.91,2.72v5.24H54.68V5.57h1.94V7.2A3.3,3.3,0,0,1,58.1,5.75"/><path class="cls-1" d="M62.86,5.57H64.8V16.15H62.86Zm.06-2a1.1,1.1,0,0,1-.34-.81A1.09,1.09,0,0,1,62.92,2a1.16,1.16,0,0,1,.85-.34,1.28,1.28,0,0,1,.86.31,1,1,0,0,1,.33.8,1.11,1.11,0,0,1-.33.83,1.17,1.17,0,0,1-.86.34,1.14,1.14,0,0,1-.85-.32"/><path class="cls-1" d="M69.74,15.76A5.72,5.72,0,0,1,67.68,8a5.26,5.26,0,0,1,2.06-2,6.19,6.19,0,0,1,3-.7,5.66,5.66,0,0,1,2.64.58,4.32,4.32,0,0,1,1.81,1.73l-1.5,1A3.62,3.62,0,0,0,74.4,7.41,3.78,3.78,0,0,0,72.72,7a4,4,0,0,0-1.92.47,3.25,3.25,0,0,0-1.34,1.36,4.08,4.08,0,0,0-.49,2,4.11,4.11,0,0,0,.49,2,3.57,3.57,0,0,0,1.34,1.36,4,4,0,0,0,1.92.47,3.37,3.37,0,0,0,1.68-.4,3.48,3.48,0,0,0,1.27-1.17l1.5,1a4.26,4.26,0,0,1-1.81,1.73,5.68,5.68,0,0,1-2.64.61,6,6,0,0,1-3-.7"/><path class="cls-1" d="M85.75,14.26a3.39,3.39,0,0,0,1.32-1.36,4.42,4.42,0,0,0,.46-2,4.35,4.35,0,0,0-.46-2,3.33,3.33,0,0,0-1.32-1.36A3.82,3.82,0,0,0,83.88,7a3.91,3.91,0,0,0-1.9.47,3.31,3.31,0,0,0-1.31,1.36,4,4,0,0,0-.49,2,4.08,4.08,0,0,0,.49,2A3.72,3.72,0,0,0,82,14.26a3.81,3.81,0,0,0,1.9.49,3.67,3.67,0,0,0,1.87-.49M89.5,5.57V16.15H87.56V14.61A3.83,3.83,0,0,1,85.92,16a5.5,5.5,0,0,1-2.23.47,5.83,5.83,0,0,1-2.86-.7,5,5,0,0,1-2-2,6,6,0,0,1-.7-2.93A6,6,0,0,1,78.86,8a5,5,0,0,1,2-2,5.85,5.85,0,0,1,2.86-.7,5.19,5.19,0,0,1,2.18.45A5.29,5.29,0,0,1,87.7,7V5.54Z"/><path class="cls-1" d="M94.88,7.44a3.2,3.2,0,0,0-1.27,1.33,4.27,4.27,0,0,0-.44,2V11l7-1.32A3.45,3.45,0,0,0,99,7.72,3.53,3.53,0,0,0,96.75,7a3.63,3.63,0,0,0-1.87.47m5.48,6,1.08,1.27A4.34,4.34,0,0,1,99.61,16a7,7,0,0,1-5.53-.26,5.27,5.27,0,0,1-2.09-2,5.68,5.68,0,0,1-.72-2.88A5.77,5.77,0,0,1,92,8a5.09,5.09,0,0,1,2-2,5.66,5.66,0,0,1,2.81-.7,5.33,5.33,0,0,1,2.7.67,5.27,5.27,0,0,1,1.94,1.9,5.49,5.49,0,0,1,.75,2.82l-8.69,1.68a3.5,3.5,0,0,0,1.4,1.76,4.27,4.27,0,0,0,2.37.63,4.11,4.11,0,0,0,3.14-1.36"/><path class="cls-1" d="M110.24,17.32a12,12,0,0,1-.18-4.14c.45-4.25.88-8,1.08-9.82a69.92,69.92,0,0,1,8.8-1.51c.51-.05.73-.61.68-1.12S120.31,0,119.8,0a96.28,96.28,0,0,0-16.68,3.35c-.49.15-.61.81-.45,1.3s.55.94,1.09.8c.27-.06,2.2-.75,5.11-1.53-.24,2.08-.63,5.76-.89,9.47-.25,3.46-.15,4.64.43,5.27a1.68,1.68,0,0,0,1.1.41c.51,0,1.13-.42,1.13-.93A.85.85,0,0,0,110.24,17.32Z"/><path class="cls-1" d="M144.74,10.84c-1.3-.63-3.34-1.68-3.37-2.43-.07-1.74,6.08-2.22,6.1-2.23a.76.76,0,0,0,.63-1,.83.83,0,0,0-1-.62c-.55.12-5.77.52-7.14,2.5a2,2,0,0,0-.36,1.65c.36,1.54,2.23,2.46,4.05,3.34.71.34,2.57,1.21,2.45,1.85-.18.9-3.11,1-4.86.65a.78.78,0,0,0-1,.63.75.75,0,0,0,.62,1,18.65,18.65,0,0,0,2.8.24c1.72,0,3.69-.2,4.21-1.74C148.45,13,146.68,11.78,144.74,10.84Z"/><path class="cls-1" d="M157,5.14a50.77,50.77,0,0,0-8.82,1.91.65.65,0,0,0-.51.9.72.72,0,0,0,.93.48c1.16-.28,2.21-.5,3.15-.68a47.84,47.84,0,0,0-.81,7.56c0,.74.4,1.09,1,1.09A1.26,1.26,0,0,0,153,16a.91.91,0,0,0-.14-1.2,49.81,49.81,0,0,1,.8-7.37c2.12-.36,3.29-.47,3.33-.47a.84.84,0,0,0,.8-.91C157.71,5.5,157.42,5.1,157,5.14Z"/><path class="cls-1" d="M130.38,13.11a36.78,36.78,0,0,1,.75-7c.08-.51-.32-.71-.83-.8a1,1,0,0,0-1.2.64c-.17,1-1.11,4.48-.64,7.3Z"/><path class="cls-1" d="M139,14.22a2.56,2.56,0,0,1-1.09-.76c-.88-1.19-.76-5.44-.4-7.32.1-.5-.26-.84-.77-.94a.85.85,0,0,0-1.06.69c-.45,3.24-1.17,8.87-4.6,9,.12-.09.15-.26.13-.56a.83.83,0,0,0-.86-.88c-5.5.27-9.86.45-9.84-.52,0-.67,1.11-1.17,1.64-1.39,2-.85,4.35-1.51,4-4.09a2.11,2.11,0,0,0-1.09-1.58c-2.83-1.64-10.43,1.32-12.06,2-.48.18-.57.61-.38,1.09a.73.73,0,0,0,1.06.43l1.68-.62a82.05,82.05,0,0,0-1,8.31.92.92,0,0,0,1,.85c.62,0,1.06-.33,1-.8,0-1.83.74-8.22.83-9,3.3-1,6.77-1.68,7.19-.44s-.66,1.75-2.72,2.63c-1.49.64-2.55,1.15-2.77,2.22a1.68,1.68,0,0,0,.36,1.35c.9,1.21,4.29,1.4,8.21,1.23h1.28a.59.59,0,0,0,.06.14c.37.64.72,1.2,2.66,1.2s3.29-1.76,4.4-3.67a3.68,3.68,0,0,0,.77,1.67,3.17,3.17,0,0,0,2.34,1.29c.37,0,.57-.19.65-.64S139.56,14.38,139,14.22Z"/></g></g></svg>