<svg xmlns="http://www.w3.org/2000/svg" viewBox="0 0 368.54 98.89"><defs><style>.cls-1{font-size:29.5px;fill:#00b3cc;font-family:Verdana;}.cls-2{letter-spacing:-0.03em;}.cls-3{letter-spacing:0em;}.cls-4{fill:#333;}</style></defs><title>Asset 4</title><g id="Layer_2" data-name="Layer 2"><g id="Capa_1" data-name="Capa 1"><text class="cls-1" transform="translate(6.05 89.94)">ww<tspan class="cls-2" x="48.28" y="0">w</tspan><tspan class="cls-3" x="71.42" y="0">.trust.rubricae.com</tspan></text><path class="cls-4" d="M18.87.21A18.87,18.87,0,0,0,0,19.08v15a.42.42,0,0,0,.42.42.4.4,0,0,0,.3-.13L13.43,21.67a5.91,5.91,0,0,1-.6-2.59,6.09,6.09,0,1,1,3.45,5.44L3.56,37.24h0a.4.4,0,0,0-.12.29.42.42,0,0,0,.42.42h15a18.87,18.87,0,0,0,0-37.74Z"/><path class="cls-4" d="M57.39,13.43A12.44,12.44,0,0,1,63,12.28v4.6a6.14,6.14,0,0,0-1-.05,7.77,7.77,0,0,0-5.85,2.24,8.81,8.81,0,0,0-2.14,6.35V37.67H49.39V13h4.55v3.82a7.67,7.67,0,0,1,3.45-3.4"/><path class="cls-4" d="M91,13V37.72H86.78V34.29a9.12,9.12,0,0,1-3.67,3.07,11.64,11.64,0,0,1-5,1.09c-3.4,0-6.08-.93-8-2.85s-3-4.64-3-8.37V13h4.54V26.74a8,8,0,0,0,1.81,5.64,6.75,6.75,0,0,0,5.09,1.91,7.28,7.28,0,0,0,5.75-2.24,8.66,8.66,0,0,0,2.13-6.24V13H91"/><path class="cls-4" d="M114.74,33.31a8.14,8.14,0,0,0,3.06-3.18A9.5,9.5,0,0,0,119,25.42a9.43,9.43,0,0,0-1.15-4.7,8.43,8.43,0,0,0-3.06-3.18,9.39,9.39,0,0,0-8.82,0,7.41,7.41,0,0,0-3.06,3.18,10.61,10.61,0,0,0,0,9.41,7.81,7.81,0,0,0,3.06,3.18,8.69,8.69,0,0,0,4.39,1.15,8.42,8.42,0,0,0,4.43-1.15M117.37,14a11.61,11.61,0,0,1,4.6,4.59,13.76,13.76,0,0,1,1.64,6.79A13.9,13.9,0,0,1,122,32.26a11.66,11.66,0,0,1-4.6,4.61,13.47,13.47,0,0,1-6.68,1.64,12.52,12.52,0,0,1-5.2-1.1,15.75,15.75,0,0,1-3.78-3.23v3.6H97.22V.45h4.54V16.5a10.68,10.68,0,0,1,3.89-3.07,12,12,0,0,1,5.09-1A13.18,13.18,0,0,1,117.37,14"/><path class="cls-4" d="M135.73,13.43a12.44,12.44,0,0,1,5.58-1.15v4.6a6.2,6.2,0,0,0-1-.05,7.81,7.81,0,0,0-5.86,2.24,8.85,8.85,0,0,0-2.13,6.35V37.67h-4.55V13h4.55v3.82a7.67,7.67,0,0,1,3.45-3.4"/><path class="cls-4" d="M146.85,13h4.54V37.72h-4.54ZM147,8.44a2.55,2.55,0,0,1-.78-1.9,2.57,2.57,0,0,1,.78-1.9,2.69,2.69,0,0,1,2-.78,2.87,2.87,0,0,1,2,.73,2.38,2.38,0,0,1,.78,1.85,2.6,2.6,0,0,1-.78,2,2.74,2.74,0,0,1-2,.78,2.69,2.69,0,0,1-2-.73"/><path class="cls-4" d="M162.92,36.81a13.34,13.34,0,0,1-4.81-18.12A12.33,12.33,0,0,1,162.92,14a14.57,14.57,0,0,1,7-1.64,13.32,13.32,0,0,1,6.18,1.37,10.05,10.05,0,0,1,4.22,4l-3.51,2.25a8.16,8.16,0,0,0-3-2.74,8.76,8.76,0,0,0-3.94-.93,9.38,9.38,0,0,0-4.49,1.09,7.62,7.62,0,0,0-3.13,3.18,9.57,9.57,0,0,0-1.14,4.71,9.66,9.66,0,0,0,1.14,4.76,8.32,8.32,0,0,0,3.13,3.18,9.38,9.38,0,0,0,4.49,1.09,7.9,7.9,0,0,0,6.89-3.67L180.28,33A10,10,0,0,1,176.06,37a13.34,13.34,0,0,1-6.18,1.42,13.91,13.91,0,0,1-7-1.64"/><path class="cls-4" d="M200.33,33.31a7.77,7.77,0,0,0,3.07-3.18,10.16,10.16,0,0,0,1.09-4.71,10.09,10.09,0,0,0-1.09-4.7,7.71,7.71,0,0,0-3.07-3.18,9.37,9.37,0,0,0-8.81,0,7.7,7.7,0,0,0-3.06,3.18,9.44,9.44,0,0,0-1.16,4.7,9.5,9.5,0,0,0,1.16,4.71,8.51,8.51,0,0,0,3.06,3.18A8.71,8.71,0,0,0,196,34.46a8.47,8.47,0,0,0,4.38-1.15M209.09,13V37.72h-4.54V34.13a8.94,8.94,0,0,1-3.83,3.23,12.68,12.68,0,0,1-5.2,1.09,13.63,13.63,0,0,1-6.68-1.64,11.63,11.63,0,0,1-4.6-4.6,14,14,0,0,1-1.64-6.84,13.76,13.76,0,0,1,1.64-6.79,11.57,11.57,0,0,1,4.6-4.6,13.47,13.47,0,0,1,6.68-1.64,12.33,12.33,0,0,1,5.09,1c1.8.8,1.8.9,4.27,3.06V13Z"/><path class="cls-4" d="M221.64,17.38a7.45,7.45,0,0,0-2.95,3.11,9.79,9.79,0,0,0-1,4.66v.49L234,22.58A8.09,8.09,0,0,0,231.23,18,8.19,8.19,0,0,0,226,16.28a8.6,8.6,0,0,0-4.38,1.1m12.82,14L237,34.29a10.18,10.18,0,0,1-4.27,3.07,16.55,16.55,0,0,1-12.93-.61,12.12,12.12,0,0,1-4.87-4.65,13.22,13.22,0,0,1-1.69-6.73,13.5,13.5,0,0,1,1.64-6.68A11.67,11.67,0,0,1,219.45,14,13.3,13.3,0,0,1,226,12.39a12.3,12.3,0,0,1,6.3,1.59,12.15,12.15,0,0,1,4.54,4.44A12.62,12.62,0,0,1,238.61,25l-20.3,3.93A8.07,8.07,0,0,0,221.59,33a9.88,9.88,0,0,0,5.53,1.48,9.63,9.63,0,0,0,7.34-3.17"/><path class="cls-4" d="M257.54,40.46a28.11,28.11,0,0,1-.42-9.67c1-9.94,2-18.76,2.53-22.94a161.2,161.2,0,0,1,20.54-3.53c1.19-.12,1.71-1.43,1.59-2.62S281.07-.11,279.86,0a226.67,226.67,0,0,0-39,7.82c-1.15.37-1.43,1.91-1.06,3.06.29.92,1.28,2.19,2.55,1.87.63-.16,5.13-1.77,11.95-3.59-.56,4.86-1.49,13.46-2.1,22.13-.57,8.08-.34,10.84,1,12.3a3.81,3.81,0,0,0,2.55,1c1.21,0,2.65-1,2.65-2.18A2,2,0,0,0,257.54,40.46Z"/><path class="cls-4" d="M338.13,25.32c-3-1.47-7.81-3.91-7.88-5.68-.15-4.05,14.21-5.19,14.25-5.19A1.78,1.78,0,0,0,346,12.18a1.92,1.92,0,0,0-2.39-1.45c-1.31.26-13.49,1.2-16.7,5.83a4.73,4.73,0,0,0-.83,3.87c.83,3.59,5.22,5.72,9.46,7.79,1.65.79,6,2.84,5.71,4.32-.41,2.1-7.25,2.25-11.34,1.52a1.81,1.81,0,0,0-2.26,1.48,1.73,1.73,0,0,0,1.44,2.24,43,43,0,0,0,6.54.55c4,0,8.63-.45,9.84-4.07C346.8,30.25,342.68,27.53,338.13,25.32Z"/><path class="cls-4" d="M366.66,12A117,117,0,0,0,346,16.47a1.52,1.52,0,0,0-1.18,2.1A1.68,1.68,0,0,0,347,19.68c2.72-.63,5.16-1.15,7.36-1.59a110,110,0,0,0-1.88,17.67c0,1.75.93,2.54,2.26,2.54a2.92,2.92,0,0,0,2.56-1,2.13,2.13,0,0,0-.31-2.81,113.91,113.91,0,0,1,1.86-17.22c4.94-.85,7.7-1.09,7.77-1.1a2,2,0,0,0,1.88-2.11C368.44,12.85,367.76,11.92,366.66,12Z"/><path class="cls-4" d="M304.59,30.62c-.24-5,.9-11.42,1.74-16.45.21-1.19-.74-1.66-1.93-1.86s-2.6.3-2.8,1.49c-.41,2.4-2.59,10.48-1.51,17.06Z"/><path class="cls-4" d="M324.82,33.21a5.87,5.87,0,0,1-2.54-1.76c-2.06-2.8-1.79-12.71-.94-17.1.23-1.18-.62-2-1.8-2.2a2,2,0,0,0-2.48,1.61c-1.06,7.56-2.72,20.72-10.75,21.1.28-.23.35-.62.32-1.3a2,2,0,0,0-2-2.07c-12.84.64-23,1-23-1.22,0-1.56,2.58-2.72,3.82-3.25,4.59-2,10.16-3.52,9.38-9.54a4.89,4.89,0,0,0-2.54-3.7c-6.6-3.83-24.35,3.09-28.17,4.59-1.12.44-1.32,1.44-.88,2.56a1.72,1.72,0,0,0,2.48,1c1.2-.47,2.53-1,3.93-1.46-.77,4.8-2.45,15.63-2.42,19.42a2.16,2.16,0,0,0,2.36,2c1.45,0,2.47-.77,2.46-1.89,0-4.25,1.73-19.2,1.94-21,7.7-2.36,15.81-3.91,16.79-1s-1.55,4.08-6.34,6.14c-3.48,1.5-6,2.68-6.48,5.19a3.9,3.9,0,0,0,.84,3.15c2.1,2.82,10,3.27,19.17,2.88,1.26,0,2.2,0,3,0a2.67,2.67,0,0,0,.14.34c.87,1.49,1.69,2.8,6.23,2.8s7.68-4.11,10.27-8.56a8.73,8.73,0,0,0,1.79,3.89,7.43,7.43,0,0,0,5.49,3c.84.09,1.31-.43,1.51-1.47S326,33.61,324.82,33.21Z"/></g></g></svg>